<svg width="252" height="48" viewBox="0 0 252 48" fill="none" xmlns="http://www.w3.org/2000/svg">
<g clip-path="url(#clip0_360_148)">
<path d="M64.2713 34.104C62.8846 34.104 61.7006 33.8 60.714 33.1973C59.7273 32.5946 58.9753 31.7893 58.4633 30.776C57.9513 29.7626 57.6953 28.6266 57.6953 27.3733V14.0986H63.466V26.2586C63.466 27.336 63.7326 28.1466 64.2713 28.68C64.81 29.2133 65.5673 29.4853 66.5433 29.4853C67.4126 29.4853 68.186 29.2826 68.8526 28.872C69.5193 28.4613 70.0526 27.8906 70.4473 27.16C70.8473 26.4293 71.0446 25.5866 71.0446 24.6426L71.546 29.3733C70.906 30.7866 69.9673 31.928 68.7353 32.7973C67.5033 33.672 66.0153 34.104 64.2713 34.104ZM71.1566 33.72V29.1013H71.0393V14.0986H76.81V33.72H71.1566Z" fill="#0E1113"/>
<path d="M92.4373 34.1042C90.5653 34.1042 89.0666 33.6668 87.9359 32.7975C86.8053 31.9282 86.1386 30.7335 85.9359 29.2188L86.2453 29.1815V41.6082H80.4746V14.0935H86.1279V18.4402L85.7813 18.3655C86.0639 16.9308 86.8319 15.7948 88.0906 14.9628C89.3493 14.1308 90.9013 13.7148 92.7466 13.7148C94.5919 13.7148 96.0479 14.1308 97.3439 14.9628C98.6399 15.7948 99.6373 16.9682 100.347 18.4828C101.051 19.9975 101.403 21.7788 101.403 23.8322C101.403 25.8855 101.029 27.7202 100.288 29.2562C99.5413 30.7975 98.5066 31.9868 97.1733 32.8348C95.8399 33.6828 94.2613 34.1042 92.4426 34.1042H92.4373ZM90.8213 29.4855C92.1813 29.4855 93.2853 29.0002 94.1279 28.0242C94.9759 27.0482 95.3973 25.6668 95.3973 23.8695C95.3973 22.0722 94.9653 20.7015 94.1066 19.7522C93.2479 18.8028 92.1226 18.3282 90.7413 18.3282C89.3599 18.3282 88.3093 18.8082 87.4506 19.7735C86.5919 20.7335 86.1599 22.1148 86.1599 23.9068C86.1599 25.6988 86.5866 27.0802 87.4506 28.0402C88.3093 29.0002 89.4346 29.4855 90.8159 29.4855H90.8213Z" fill="#0E1113"/>
<path d="M112.553 34.1041C109.679 34.1041 107.396 33.5281 105.706 32.3708C104.015 31.2134 103.087 29.6241 102.938 27.5974H108.095C108.223 28.4668 108.666 29.1281 109.423 29.5761C110.18 30.0241 111.226 30.2481 112.559 30.2481C113.764 30.2481 114.644 30.0721 115.194 29.7308C115.743 29.3841 116.02 28.8934 116.02 28.2481C116.02 27.7628 115.86 27.3841 115.54 27.1121C115.22 26.8454 114.634 26.6214 113.791 26.4401L110.634 25.7841C108.298 25.2988 106.58 24.5574 105.476 23.5708C104.372 22.5841 103.823 21.3094 103.823 19.7414C103.823 17.8428 104.554 16.3601 106.015 15.2988C107.476 14.2321 109.514 13.7041 112.132 13.7041C114.751 13.7041 116.788 14.2214 118.324 15.2614C119.866 16.3014 120.708 17.7414 120.863 19.5921H115.706C115.604 18.9254 115.241 18.4188 114.628 18.0721C114.015 17.7254 113.14 17.5548 112.01 17.5548C110.986 17.5548 110.223 17.7041 109.722 17.9974C109.22 18.2908 108.97 18.7068 108.97 19.2454C108.97 19.7094 109.172 20.0721 109.583 20.3441C109.994 20.6108 110.671 20.8508 111.62 21.0534L115.161 21.7841C117.135 22.1948 118.628 22.9574 119.642 24.0721C120.655 25.1868 121.161 26.5041 121.161 28.0134C121.161 29.9388 120.41 31.4321 118.911 32.4934C117.412 33.5601 115.29 34.0881 112.543 34.0881L112.553 34.1041Z" fill="#0E1113"/>
<path d="M129.916 34.104C128.529 34.104 127.345 33.8 126.359 33.1973C125.372 32.5946 124.62 31.7893 124.108 30.776C123.596 29.7626 123.34 28.6266 123.34 27.3733V14.0986H129.111V26.2586C129.111 27.336 129.377 28.1466 129.916 28.68C130.455 29.2186 131.212 29.4853 132.188 29.4853C133.057 29.4853 133.831 29.2826 134.497 28.872C135.164 28.4613 135.697 27.8906 136.092 27.16C136.487 26.4293 136.689 25.5866 136.689 24.6426L137.191 29.3733C136.551 30.7866 135.612 31.928 134.38 32.7973C133.148 33.672 131.66 34.104 129.916 34.104ZM136.801 33.72V29.1013H136.684V14.0986H142.455V33.72H136.801Z" fill="#0E1113"/>
<path d="M146.111 33.7202V14.0935H151.765V18.7122H151.882V33.7148H146.111V33.7202ZM159.77 33.7255V21.5655C159.77 20.4882 159.493 19.6775 158.943 19.1442C158.394 18.6055 157.589 18.3388 156.538 18.3388C155.642 18.3388 154.837 18.5468 154.133 18.9522C153.429 19.3628 152.874 19.9282 152.479 20.6428C152.079 21.3628 151.882 22.2055 151.882 23.1815L151.381 18.4508C152.021 17.0162 152.965 15.8695 154.207 15.0055C155.45 14.1468 156.986 13.7148 158.805 13.7148C160.986 13.7148 162.65 14.3228 163.807 15.5442C164.959 16.7655 165.541 18.3975 165.541 20.4508V33.7255H159.77Z" fill="#0E1113"/>
<path d="M23.0933 12.5467C29.472 12.5467 34.6293 17.7147 34.6293 24.0827H46.1653C46.1653 11.336 35.8347 1 23.0773 1C10.32 1 0 11.3253 0 24.0773H11.536C11.5627 17.6987 16.7307 12.5413 23.0933 12.5413V12.5467Z" fill="#0E1113"/>
<path d="M27.0013 34.93C31.4493 33.3247 34.6226 29.074 34.6226 24.082H11.5559C11.5559 29.074 14.7346 33.3354 19.1773 34.93V35.1274H2.83594C6.74527 42.29 14.3559 47.1487 23.1026 47.1487C31.8493 47.1487 39.4439 42.29 43.3693 35.1274H27.0013V34.93Z" fill="#0E1113"/>
</g>
<rect x="174" y="13.5" width="77.9914" height="21" rx="4" fill="#D5F800"/>
<path d="M240.511 28.3201V22.2001H241.699V23.7241H241.759V28.3201H240.511ZM241.759 25.1281L241.603 23.6761C241.747 23.1561 241.995 22.7601 242.347 22.4881C242.699 22.2161 243.119 22.0801 243.607 22.0801C243.791 22.0801 243.919 22.0961 243.991 22.1281V23.3041C243.951 23.2881 243.895 23.2801 243.823 23.2801C243.751 23.2721 243.663 23.2681 243.559 23.2681C242.959 23.2681 242.507 23.4241 242.203 23.7361C241.907 24.0481 241.759 24.5121 241.759 25.1281Z" fill="#2B3200"/>
<path d="M236.343 28.4401C235.727 28.4401 235.183 28.3041 234.711 28.0321C234.247 27.7601 233.883 27.3841 233.619 26.9041C233.355 26.4241 233.223 25.8721 233.223 25.2481C233.223 24.6161 233.351 24.0641 233.607 23.5921C233.871 23.1121 234.239 22.7401 234.711 22.4761C235.183 22.2121 235.723 22.0801 236.331 22.0801C236.923 22.0801 237.435 22.2081 237.867 22.4641C238.307 22.7121 238.643 23.0601 238.875 23.5081C239.115 23.9561 239.235 24.4881 239.235 25.1041C239.235 25.2001 239.231 25.2921 239.223 25.3801C239.223 25.4601 239.215 25.5441 239.199 25.6321H234.063V24.6961H238.323L238.011 25.0681C238.011 24.4121 237.863 23.9121 237.567 23.5681C237.271 23.2241 236.859 23.0521 236.331 23.0521C235.763 23.0521 235.311 23.2481 234.975 23.6401C234.647 24.0241 234.483 24.5601 234.483 25.2481C234.483 25.9441 234.647 26.4881 234.975 26.8801C235.311 27.2721 235.775 27.4681 236.367 27.4681C236.727 27.4681 237.039 27.3961 237.303 27.2521C237.567 27.1001 237.763 26.8801 237.891 26.5921H239.067C238.867 27.1681 238.527 27.6201 238.047 27.9481C237.575 28.2761 237.007 28.4401 236.343 28.4401Z" fill="#2B3200"/>
<path d="M231.76 28.4401C231.048 28.4401 230.524 28.2761 230.188 27.9481C229.86 27.6121 229.696 27.1201 229.696 26.4721V20.7961L230.932 20.3281V26.4841C230.932 26.8041 231.016 27.0401 231.184 27.1921C231.352 27.3441 231.624 27.4201 232 27.4201C232.144 27.4201 232.272 27.4081 232.384 27.3841C232.496 27.3601 232.592 27.3321 232.672 27.3001V28.3081C232.584 28.3481 232.46 28.3801 232.3 28.4041C232.14 28.4281 231.96 28.4401 231.76 28.4401ZM228.472 23.1961V22.2001H232.672V23.1961H228.472Z" fill="#2B3200"/>
<path d="M222.078 28.3201V22.2001H223.266V23.6401H223.326V28.3201H222.078ZM226.422 28.3201V24.3841C226.422 23.9601 226.314 23.6441 226.098 23.4361C225.89 23.2281 225.578 23.1241 225.162 23.1241C224.802 23.1241 224.482 23.2041 224.202 23.3641C223.93 23.5241 223.714 23.7441 223.554 24.0241C223.402 24.3041 223.326 24.6361 223.326 25.0201L223.17 23.5561C223.37 23.1001 223.678 22.7401 224.094 22.4761C224.51 22.2121 224.994 22.0801 225.546 22.0801C226.202 22.0801 226.718 22.2641 227.094 22.6321C227.47 23.0001 227.658 23.4881 227.658 24.0961V28.3201H226.422Z" fill="#2B3200"/>
<path d="M217.909 28.4401C217.293 28.4401 216.749 28.3041 216.277 28.0321C215.813 27.7601 215.449 27.3841 215.185 26.9041C214.921 26.4241 214.789 25.8721 214.789 25.2481C214.789 24.6161 214.917 24.0641 215.173 23.5921C215.437 23.1121 215.805 22.7401 216.277 22.4761C216.749 22.2121 217.289 22.0801 217.897 22.0801C218.489 22.0801 219.001 22.2081 219.433 22.4641C219.873 22.7121 220.209 23.0601 220.441 23.5081C220.681 23.9561 220.801 24.4881 220.801 25.1041C220.801 25.2001 220.797 25.2921 220.789 25.3801C220.789 25.4601 220.781 25.5441 220.765 25.6321H215.629V24.6961H219.889L219.577 25.0681C219.577 24.4121 219.429 23.9121 219.133 23.5681C218.837 23.2241 218.425 23.0521 217.897 23.0521C217.329 23.0521 216.877 23.2481 216.541 23.6401C216.213 24.0241 216.049 24.5601 216.049 25.2481C216.049 25.9441 216.213 26.4881 216.541 26.8801C216.877 27.2721 217.341 27.4681 217.933 27.4681C218.293 27.4681 218.605 27.3961 218.869 27.2521C219.133 27.1001 219.329 26.8801 219.457 26.5921H220.633C220.433 27.1681 220.093 27.6201 219.613 27.9481C219.141 28.2761 218.573 28.4401 217.909 28.4401Z" fill="#2B3200"/>
<path d="M210.191 28.4401C209.591 28.4401 209.035 28.3321 208.523 28.1161C208.011 27.8921 207.567 27.5841 207.191 27.1921C206.823 26.7921 206.535 26.3201 206.327 25.7761C206.119 25.2321 206.015 24.6361 206.015 23.9881C206.015 23.3401 206.115 22.7481 206.315 22.2121C206.523 21.6681 206.811 21.2001 207.179 20.8081C207.555 20.4081 207.999 20.1001 208.511 19.8841C209.023 19.6681 209.579 19.5601 210.179 19.5601C210.851 19.5601 211.455 19.6961 211.991 19.9681C212.527 20.2321 212.963 20.6081 213.299 21.0961C213.643 21.5841 213.855 22.1521 213.935 22.8001H212.687C212.583 22.1201 212.307 21.5921 211.859 21.2161C211.419 20.8321 210.863 20.6401 210.191 20.6401C209.623 20.6401 209.119 20.7801 208.679 21.0601C208.247 21.3321 207.911 21.7201 207.671 22.2241C207.431 22.7201 207.311 23.3081 207.311 23.9881C207.311 24.6601 207.431 25.2521 207.671 25.7641C207.919 26.2681 208.259 26.6601 208.691 26.9401C209.123 27.2201 209.623 27.3601 210.191 27.3601C210.863 27.3601 211.423 27.1721 211.871 26.7961C212.327 26.4121 212.603 25.8801 212.699 25.2001H213.959C213.871 25.8561 213.655 26.4281 213.311 26.9161C212.967 27.3961 212.527 27.7721 211.991 28.0441C211.463 28.3081 210.863 28.4401 210.191 28.4401Z" fill="#2B3200"/>
<path d="M199.396 28.3202L196.9 22.2002H198.232L200.272 27.7562H199.684L201.7 22.2002H202.984L200.5 28.3202H199.396Z" fill="#2B3200"/>
<path d="M193.628 28.4401C193.012 28.4401 192.468 28.3041 191.996 28.0321C191.532 27.7601 191.168 27.3841 190.904 26.9041C190.64 26.4241 190.508 25.8721 190.508 25.2481C190.508 24.6161 190.636 24.0641 190.892 23.5921C191.156 23.1121 191.524 22.7401 191.996 22.4761C192.468 22.2121 193.008 22.0801 193.616 22.0801C194.208 22.0801 194.72 22.2081 195.152 22.4641C195.592 22.7121 195.928 23.0601 196.16 23.5081C196.4 23.9561 196.52 24.4881 196.52 25.1041C196.52 25.2001 196.516 25.2921 196.508 25.3801C196.508 25.4601 196.5 25.5441 196.484 25.6321H191.348V24.6961H195.608L195.296 25.0681C195.296 24.4121 195.148 23.9121 194.852 23.5681C194.556 23.2241 194.144 23.0521 193.616 23.0521C193.048 23.0521 192.596 23.2481 192.26 23.6401C191.932 24.0241 191.768 24.5601 191.768 25.2481C191.768 25.9441 191.932 26.4881 192.26 26.8801C192.596 27.2721 193.06 27.4681 193.652 27.4681C194.012 27.4681 194.324 27.3961 194.588 27.2521C194.852 27.1001 195.048 26.8801 195.176 26.5921H196.352C196.152 27.1681 195.812 27.6201 195.332 27.9481C194.86 28.2761 194.292 28.4401 193.628 28.4401Z" fill="#2B3200"/>
<path d="M182.768 28.3202V27.2642H185.036C185.724 27.2642 186.312 27.1242 186.8 26.8442C187.296 26.5642 187.676 26.1762 187.94 25.6802C188.204 25.1842 188.336 24.6082 188.336 23.9522C188.336 23.3042 188.204 22.7402 187.94 22.2602C187.684 21.7802 187.308 21.4082 186.812 21.1442C186.324 20.8722 185.732 20.7362 185.036 20.7362H182.78V19.6802H185.036C185.964 19.6802 186.772 19.8562 187.46 20.2082C188.148 20.5602 188.68 21.0602 189.056 21.7082C189.44 22.3482 189.632 23.1042 189.632 23.9762C189.632 24.8482 189.44 25.6122 189.056 26.2682C188.672 26.9162 188.136 27.4202 187.448 27.7802C186.768 28.1402 185.968 28.3202 185.048 28.3202H182.768ZM182 28.3202V19.6802H183.272V28.3202H182Z" fill="#2B3200"/>
<defs>
<clipPath id="clip0_360_148">
<rect width="165.541" height="46.1493" fill="white" transform="translate(0 1)"/>
</clipPath>
</defs>
</svg>